<svg width="98" height="97" viewBox="0 0 98 97" fill="none" xmlns="http://www.w3.org/2000/svg">
<path fill-rule="evenodd" clip-rule="evenodd" d="M38.5616 11.7747C41.6506 10.067 45.2105 9.09375 49 9.09375C52.7895 9.09375 56.3494 10.067 59.4384 11.7747L61.6985 9.53767C62.2965 8.94578 63.266 8.94578 63.864 9.53767C64.462 10.1296 64.462 11.0892 63.864 11.6811L62.0498 13.4768C67.1501 17.3557 70.4375 23.4541 70.4375 30.3125H27.5625C27.5625 23.4541 30.8499 17.3557 35.9502 13.4768L34.136 11.6811C33.538 11.0892 33.538 10.1296 34.136 9.53767C34.734 8.94578 35.7035 8.94578 36.3015 9.53767L38.5616 11.7747ZM42.875 21.2188C42.875 22.8929 41.5039 24.25 39.8125 24.25C38.1211 24.25 36.75 22.8929 36.75 21.2188C36.75 19.5446 38.1211 18.1875 39.8125 18.1875C41.5039 18.1875 42.875 19.5446 42.875 21.2188ZM58.1875 24.25C59.8789 24.25 61.25 22.8929 61.25 21.2188C61.25 19.5446 59.8789 18.1875 58.1875 18.1875C56.4961 18.1875 55.125 19.5446 55.125 21.2188C55.125 22.8929 56.4961 24.25 58.1875 24.25Z" fill="#87C527"/>
<path d="M15.3125 37.8906C15.3125 35.3795 17.3692 33.3438 19.9062 33.3438C22.4433 33.3438 24.5 35.3795 24.5 37.8906V56.0781C24.5 58.5893 22.4433 60.625 19.9062 60.625C17.3692 60.625 15.3125 58.5893 15.3125 56.0781V37.8906Z" fill="#87C527"/>
<path d="M36.75 72.75V83.3594C36.75 85.8705 38.8067 87.9062 41.3438 87.9062C43.8808 87.9062 45.9375 85.8705 45.9375 83.3594V72.75H52.0625V83.3594C52.0625 85.8705 54.1192 87.9062 56.6562 87.9062C59.1933 87.9062 61.25 85.8705 61.25 83.3594V72.75H64.3125C67.6952 72.75 70.4375 70.0357 70.4375 66.6875V33.3438H27.5625V66.6875C27.5625 70.0357 30.3048 72.75 33.6875 72.75H36.75Z" fill="#87C527"/>
<path d="M73.5 37.8906C73.5 35.3795 75.5567 33.3438 78.0938 33.3438C80.6308 33.3438 82.6875 35.3795 82.6875 37.8906V56.0781C82.6875 58.5893 80.6308 60.625 78.0938 60.625C75.5567 60.625 73.5 58.5893 73.5 56.0781V37.8906Z" fill="#87C527"/>
</svg>
