<svg width="60" height="78" viewBox="0 0 60 78" fill="none" xmlns="http://www.w3.org/2000/svg" className="text-primary">
  <path fill="#020617" d="M31.688 0.695995C40.008 0.695995 46.6 3.288 51.464 8.472C56.392 13.656 58.856 20.696 58.856 29.592C58.856 34.968 57.544 40.504 54.92 46.2C52.296 51.832 48.808 56.952 44.456 61.56C40.104 66.168 34.792 69.944 28.52 72.888C22.248 75.832 15.752 77.304 9.032 77.304C7.752 77.304 6.504 77.24 5.288 77.112C4.072 77.048 3.208 76.984 2.696 76.92L1.832 76.728C0.808 76.472 0.296 75.96 0.296 75.192L0.584 74.232C1.224 72.696 2.152 70.584 3.368 67.896C4.52 65.208 7.24 59.928 11.528 52.056C15.88 44.184 20.52 36.568 25.448 29.208C30.056 22.296 33.704 17.496 36.392 14.808C37.288 13.848 38.024 13.368 38.6 13.368C39.048 13.368 39.272 13.752 39.272 14.52C39.272 15.032 39.24 15.352 39.176 15.48C38.6 17.976 36.552 22.68 33.032 29.592C21.384 50.2 14.088 64.536 11.144 72.6C11.08 72.792 11.048 73.016 11.048 73.272C11.048 73.912 11.304 74.264 11.816 74.328C12.2 74.392 12.776 74.424 13.544 74.424C19.176 74.424 24.968 71.704 30.92 66.264C36.936 60.824 41.896 54.04 45.8 45.912C49.704 37.72 51.656 29.944 51.656 22.584C51.656 17.208 50.12 12.728 47.048 9.144C43.976 5.496 39.816 3.672 34.568 3.672C31.88 3.672 29.64 4.408 27.848 5.88C26.12 7.352 25.256 9.496 25.256 12.312C25.256 14.552 25.928 16.856 27.272 19.224C27.4 19.608 27.464 19.992 27.464 20.376C27.464 20.888 27.272 21.144 26.888 21.144C26.696 21.144 26.408 21.048 26.024 20.856C24.552 20.088 22.92 18.488 21.128 16.056C19.336 13.624 18.44 11.096 18.44 8.472C18.44 6.424 19.208 4.792 20.744 3.576C22.28 2.36 23.944 1.592 25.736 1.272C27.528 0.887997 29.512 0.695995 31.688 0.695995ZM53.0675 75.768C52.1715 75.768 51.4675 75.48 50.9555 74.904C50.4435 74.328 50.1875 73.56 50.1875 72.6C50.1875 70.808 50.8915 69.048 52.2995 67.32C53.7715 65.528 55.3715 64.632 57.0995 64.632C59.0195 64.632 59.9795 65.72 59.9795 67.896C59.9795 69.752 59.2435 71.512 57.7715 73.176C56.3635 74.84 54.7955 75.704 53.0675 75.768Z"/>
</svg>
