<svg width="88" height="88" viewBox="0 0 88 88" fill="none" xmlns="http://www.w3.org/2000/svg">
<path d="M1.8397 48.4414C-0.613237 45.9885 -0.613232 42.0115 1.83971 39.5586L39.5586 1.8397C42.0115 -0.613237 45.9885 -0.613232 48.4414 1.83971L86.1603 39.5586C88.6132 42.0115 88.6132 45.9885 86.1603 48.4414L48.4414 86.1603C45.9885 88.6132 42.0115 88.6132 39.5586 86.1603L1.8397 48.4414Z" fill="#EE513B"/>
<path d="M29.3422 12L26 15.3422L34.632 23.9742C34.2828 24.7233 34.0879 25.5588 34.0879 26.4399C34.0879 28.9412 35.6595 31.0756 37.8691 31.9092V53.0252C35.6595 53.8589 34.0879 55.9932 34.0879 58.4945C34.0879 61.722 36.7042 64.3383 39.9316 64.3383C43.159 64.3383 45.7754 61.722 45.7754 58.4945C45.7754 56.2267 44.4836 54.2607 42.5957 53.292V31.9379L50.8471 40.1893C50.515 40.9233 50.3301 41.7381 50.3301 42.5961C50.3301 45.8235 52.9464 48.4399 56.1738 48.4399C59.4012 48.4399 62.0176 45.8235 62.0176 42.5961C62.0176 39.3687 59.4012 36.7524 56.1738 36.7524C55.5466 36.7524 54.9425 36.8512 54.3762 37.034L45.5143 28.1722C45.684 27.6248 45.7754 27.043 45.7754 26.4399C45.7754 23.2124 43.159 20.5961 39.9316 20.5961C39.3285 20.5961 38.7467 20.6875 38.1993 20.8571L29.3422 12Z" fill="white"/>
</svg>
