<svg width="49" height="48" viewBox="0 0 49 48" fill="none" xmlns="http://www.w3.org/2000/svg">
<path d="M16.3893 38.6495C16.3893 38.848 16.1621 39.0068 15.8756 39.0068C15.5496 39.0366 15.3224 38.8778 15.3224 38.6495C15.3224 38.451 15.5496 38.2922 15.8361 38.2922C16.1325 38.2624 16.3893 38.4212 16.3893 38.6495ZM13.3169 38.2029C13.2478 38.4014 13.4454 38.6297 13.7417 38.6892C13.9986 38.7885 14.295 38.6892 14.3542 38.4907C14.4135 38.2922 14.2258 38.0639 13.9294 37.9746C13.6726 37.9051 13.3861 38.0044 13.3169 38.2029ZM17.6835 38.0342C17.397 38.1036 17.1994 38.2922 17.229 38.5205C17.2587 38.719 17.5155 38.848 17.8119 38.7786C18.0984 38.7091 18.296 38.5205 18.2663 38.322C18.2367 38.1334 17.97 38.0044 17.6835 38.0342ZM24.1839 0C10.4817 0 0 10.4515 0 24.218C0 35.2253 6.89557 44.6445 16.745 47.9596C18.0095 48.1878 18.454 47.4037 18.454 46.7586C18.454 46.1432 18.4244 42.7487 18.4244 40.6644C18.4244 40.6644 11.5091 42.1532 10.0569 37.7066C10.0569 37.7066 8.93064 34.8183 7.31048 34.0739C7.31048 34.0739 5.04819 32.5156 7.46855 32.5454C7.46855 32.5454 9.92843 32.7439 11.2819 35.1062C13.4454 38.9374 17.071 37.8356 18.4837 37.1806C18.7109 35.5925 19.353 34.4908 20.0643 33.8357C14.5419 33.2203 8.97016 32.4164 8.97016 22.8681C8.97016 20.1386 9.72097 18.7689 11.3016 17.0221C11.0448 16.3769 10.205 13.7169 11.5585 10.2827C13.6232 9.63757 18.375 12.9626 18.375 12.9626C20.3508 12.4068 22.4748 12.1189 24.579 12.1189C26.6833 12.1189 28.8073 12.4068 30.7831 12.9626C30.7831 12.9626 35.5349 9.62764 37.5996 10.2827C38.953 13.7268 38.1133 16.3769 37.8565 17.0221C39.4371 18.7789 40.4052 20.1486 40.4052 22.8681C40.4052 32.4462 34.5865 33.2104 29.0641 33.8357C29.973 34.6198 30.7436 36.1086 30.7436 38.4411C30.7436 41.786 30.7139 45.9249 30.7139 46.7387C30.7139 47.3839 31.1683 48.168 32.423 47.9397C42.302 44.6445 49 35.2253 49 24.218C49 10.4515 37.8861 0 24.1839 0ZM9.60242 34.2327C9.47399 34.332 9.50363 34.5603 9.67157 34.7488C9.82964 34.9077 10.0569 34.9771 10.1853 34.8481C10.3137 34.7488 10.2841 34.5206 10.1161 34.332C9.95807 34.1732 9.73085 34.1037 9.60242 34.2327ZM8.53548 33.4288C8.46633 33.5578 8.56512 33.7166 8.7627 33.8159C8.92077 33.9151 9.11835 33.8853 9.1875 33.7464C9.25665 33.6173 9.15786 33.4585 8.96028 33.3593C8.7627 33.2997 8.60464 33.3295 8.53548 33.4288ZM11.7363 36.9622C11.5782 37.0912 11.6375 37.389 11.8647 37.5776C12.0919 37.8059 12.3784 37.8356 12.5069 37.6768C12.6353 37.5478 12.576 37.25 12.3784 37.0615C12.1611 36.8332 11.8647 36.8034 11.7363 36.9622ZM10.6101 35.5032C10.452 35.6024 10.452 35.8605 10.6101 36.0888C10.7681 36.3171 11.0349 36.4163 11.1633 36.3171C11.3214 36.188 11.3214 35.93 11.1633 35.7017C11.025 35.4734 10.7681 35.3741 10.6101 35.5032Z" fill="white"/>
</svg>
