<svg width="88" height="88" viewBox="0 0 88 88" fill="none" xmlns="http://www.w3.org/2000/svg">
<path d="M44.1355 23.2117C62.2529 9.14669 52.9546 0 52.9546 0C54.3383 14.5403 37.9845 17.9735 33.6008 27.9652C30.6096 34.7833 35.6491 40.7532 44.1295 48.2773C43.3798 46.6109 42.2235 44.9916 41.0529 43.3523C37.0604 37.761 32.9012 31.9363 44.1355 23.2117Z" fill="#E76F00"/>
<path d="M47.0279 51.3618C47.0279 51.3618 52.4785 46.9641 48.162 42.0771C33.5298 25.4976 64.1654 17.9735 64.1654 17.9735C45.4611 26.9844 48.2534 32.3329 52.9547 38.8304C57.9883 45.7978 47.0279 51.3618 47.0279 51.3618Z" fill="#E76F00"/>
<path d="M63.0768 64.4753C79.8664 55.896 72.1035 47.6513 66.6852 48.7621C65.3572 49.0339 64.765 49.2694 64.765 49.2694C64.765 49.2694 65.258 48.5099 66.1997 48.1812C76.9189 44.4754 85.1627 59.1111 62.7394 64.9077C62.7394 64.9079 62.9992 64.6795 63.0768 64.4753Z" fill="#5382A1"/>
<path d="M28.1409 53.6166C17.6361 52.2371 33.9005 48.4383 33.9005 48.4383C33.9005 48.4383 27.5844 48.0194 19.8163 51.7119C10.6309 56.0812 42.5372 58.0683 59.0534 53.7968C60.7705 52.6438 63.1439 51.6443 63.1439 51.6443C63.1439 51.6443 56.3853 52.8315 49.6543 53.3898C41.4182 54.0684 32.5763 54.2005 28.1409 53.6166Z" fill="#5382A1"/>
<path d="M32.1375 61.8085C26.2797 61.2127 30.1152 58.4207 30.1152 58.4207C14.9572 63.368 38.5488 68.9782 59.7297 62.8877C57.4783 62.1071 56.0465 60.6797 56.0465 60.6797C45.6949 62.6398 39.7126 62.577 32.1375 61.8085Z" fill="#5382A1"/>
<path d="M34.6898 70.6727C28.8364 70.0109 32.2561 68.0553 32.2561 68.0553C18.4963 71.8361 40.6255 79.6469 58.144 72.2637C55.2746 71.1665 53.2201 69.8997 53.2201 69.8997C45.4054 71.3541 41.7811 71.4682 34.6898 70.6727Z" fill="#5382A1"/>
<path d="M71.3313 75.1816C71.3313 75.1816 73.862 77.2321 68.5442 78.8184C58.4324 81.8307 26.4575 82.7403 17.5751 78.9384C14.3821 77.5725 20.3699 75.6769 22.2534 75.2791C24.2178 74.8602 25.3403 74.9383 25.3403 74.9383C21.7893 72.4784 2.38834 79.7684 15.4856 81.8561C51.2036 87.5522 80.5961 79.2911 71.3313 75.1816Z" fill="#5382A1"/>
<path d="M77 79.6617C76.4139 87.1604 51.6662 88.7377 35.5504 87.7233C25.0369 87.0603 22.9298 85.4034 22.899 85.3792C32.9612 87.0106 49.9259 87.3075 63.6811 84.762C75.8734 82.5044 77 79.6617 77 79.6617Z" fill="#5382A1"/>
</svg>
