<svg width="88" height="88" viewBox="0 0 88 88" fill="none" xmlns="http://www.w3.org/2000/svg">
<rect x="5.5" y="5.5" width="77" height="77" fill="#FFCA28"/>
<path d="M52.25 69.5411L57.9192 65.7898C58.3635 67.1856 61.1769 70.5007 64.7308 70.5007C68.2846 70.5007 69.9346 68.5597 69.9346 67.2729C69.9346 63.7661 66.3057 62.5297 64.5628 61.9358C64.2786 61.839 64.0446 61.7593 63.8846 61.6896C63.8026 61.6539 63.6785 61.6064 63.5192 61.5456C61.5807 60.8049 54.4288 58.0725 54.4288 50.1522C54.4288 41.4283 62.8481 40.425 64.7519 40.425C65.9975 40.425 71.9865 40.5777 74.9692 46.1828L69.4692 50.0214C68.2635 47.5787 66.2601 46.7717 65.0269 46.7717C61.9808 46.7717 61.3462 49.0049 61.3462 50.0214C61.3462 52.8737 64.6557 54.1521 67.4502 55.2316C68.1813 55.514 68.8771 55.7828 69.4692 56.0626C72.5154 57.5021 77 59.8575 77 67.2729C77 70.987 73.8848 77 66.0423 77C55.5077 77 52.7154 70.6752 52.25 69.5411Z" fill="#3E3E3E"/>
<path d="M24.75 70.286L30.6589 66.5367C31.1219 67.9318 32.921 70.504 35.5315 70.504C38.1419 70.504 39.478 67.8228 39.478 66.5367V41.2501H46.745V66.5367C46.8626 70.0245 44.9283 77.0001 36.3913 77.0001C28.5422 77.0001 25.2792 72.3351 24.75 70.286Z" fill="#3E3E3E"/>
</svg>
