<svg width="50" height="50" viewBox="0 0 50 50" fill="none" xmlns="http://www.w3.org/2000/svg">
<path d="M45.5153 0.983521H3.49024C1.56459 0.983521 0 2.56999 0 4.51752V46.466C0 48.4136 1.56459 50 3.49024 50H45.5153C47.441 50 49.0165 48.4136 49.0165 46.466V4.51752C49.0165 2.56999 47.441 0.983521 45.5153 0.983521ZM14.8144 42.9977H7.54942V19.6054H14.8253V42.9977H14.8144ZM11.1819 16.4106C8.85142 16.4106 6.96953 14.5178 6.96953 12.1982C6.96953 9.8787 8.85142 7.98588 11.1819 7.98588C13.5014 7.98588 15.3942 9.8787 15.3942 12.1982C15.3942 14.5287 13.5124 16.4106 11.1819 16.4106ZM42.047 42.9977H34.782V31.6188C34.782 28.9054 34.7273 25.4152 31.0073 25.4152C27.2217 25.4152 26.6418 28.3693 26.6418 31.4219V42.9977H19.3768V19.6054H26.3464V22.8002H26.4448C27.4186 20.9621 29.7928 19.0255 33.3268 19.0255C40.6793 19.0255 42.047 23.8725 42.047 30.1746V42.9977Z" fill="white"/>
</svg>
