<svg width="88" height="88" viewBox="0 0 88 88" fill="none" xmlns="http://www.w3.org/2000/svg">
<g clip-path="url(#clip0_12_14)">
<path d="M44 88C68.3005 88 88 68.3005 88 44C88 19.6995 68.3005 0 44 0C19.6995 0 0 19.6995 0 44C0 68.3005 19.6995 88 44 88Z" fill="#13AA52"/>
<path d="M55.7613 38.6238C52.9821 26.3579 46.4139 22.3248 45.7066 20.784C44.9332 19.6969 44.1494 17.7633 44.1494 17.7633C44.1366 17.7306 44.1159 17.673 44.0919 17.6172C44.0119 18.7043 43.9707 19.1237 42.9429 20.2202C41.3513 21.4646 33.1855 28.3164 32.5212 42.252C31.9016 55.2492 41.9099 62.9939 43.2634 63.9813L43.4173 64.0905V64.081C43.4259 64.1463 43.8469 67.1748 44.1426 70.3837H45.203C45.4519 68.1154 45.8248 65.8625 46.3202 63.635L46.4062 63.5791C47.0116 63.145 47.5888 62.6729 48.1344 62.1655L48.1962 62.1096C51.0734 59.4516 56.246 53.3036 56.1953 43.5016C56.1846 41.8665 56.0394 40.235 55.7613 38.6238ZM44.03 56.6431C44.03 56.6431 44.03 38.4141 44.6316 38.4175C45.1008 38.4175 45.7084 61.9309 45.7084 61.9309C44.873 61.8303 44.03 58.0611 44.03 56.6431Z" fill="white"/>
</g>
<defs>
<clipPath id="clip0_12_14">
<rect width="88" height="88" fill="white"/>
</clipPath>
</defs>
</svg>
