<svg width="87" height="88" viewBox="0 0 87 88" fill="none" xmlns="http://www.w3.org/2000/svg">
<path d="M46.6877 6.32148C44.7579 5.22371 42.2421 5.22864 40.3107 6.32148C30.6372 11.7212 20.9638 17.1226 11.2887 22.5199C9.40604 23.5217 8.13624 25.5667 8.15649 27.6893V60.3151C8.14289 62.4792 9.47817 64.5439 11.4094 65.532C14.1884 67.0274 16.8883 68.6747 19.7176 70.0706C22.9857 71.6949 27.0745 72.0542 30.3826 70.3602C33.0678 68.9561 34.2605 65.8336 34.2571 62.964C34.2788 52.1966 34.2605 41.4289 34.2655 30.6615C34.3293 30.1829 33.9742 29.6715 33.4581 29.683C32.2219 29.6633 30.984 29.6715 29.7478 29.6797C29.2806 29.635 28.8248 30.0275 28.86 30.5024C28.8434 41.2005 28.8633 51.9018 28.85 62.6015C28.8769 64.0815 27.8884 65.504 26.4783 66.0039C23.2214 67.1586 13.9254 61.0534 13.9254 61.0534C13.5842 60.8935 13.3676 60.5193 13.401 60.1476C13.401 49.3835 13.4027 38.6191 13.401 27.8566C13.3541 27.4227 13.6185 27.032 14.0125 26.8548C23.654 21.4869 33.2906 16.1055 42.9321 10.7342C43.2669 10.5082 43.7338 10.5089 44.0679 10.7359C53.7095 16.1055 63.3477 21.4819 72.9909 26.8501C73.3862 27.027 73.6392 27.4244 73.599 27.8566C73.5973 38.6191 73.6023 49.3835 73.5957 60.1459C73.6242 60.5269 73.4298 60.896 73.078 61.0633C63.5265 66.4021 53.8662 71.5687 44.4012 77.0626C43.9882 77.3023 43.5205 77.5737 43.0578 77.3097C40.5687 75.9171 38.1098 74.4702 35.629 73.0642C35.3594 72.8939 35.0159 72.821 34.7346 73.0113C33.6221 73.6042 32.5761 74.0844 31.2989 74.5958C29.5049 75.3141 29.7916 75.608 31.4093 76.5613C34.3107 78.2221 37.2168 79.8763 40.1179 81.5387C42.0277 82.7443 44.5939 82.8301 46.5653 81.7159C56.2404 76.323 65.9122 70.9235 75.589 65.5306C77.5152 64.537 78.8571 62.4805 78.8435 60.3149V27.6893C78.8621 25.6098 77.6409 23.6012 75.8151 22.5846C66.1081 17.1586 56.3964 11.7443 46.6877 6.32148Z" fill="#8CC84B"/>
<path d="M61.2857 30.8172C57.4885 28.7623 52.971 28.6529 48.7513 28.9214C45.7029 29.2261 42.4966 30.077 40.2755 32.2873C37.9975 34.5095 37.5017 38.0976 38.5837 40.9985C39.3591 43.0481 41.3108 44.3812 43.3292 45.0862C45.9292 46.0146 48.6599 46.3016 51.3915 46.5888C53.883 46.8507 56.3752 47.1127 58.7699 47.8615C59.7481 48.1895 60.8873 48.6911 61.1869 49.7674C61.4635 51.0424 61.1603 52.5243 60.1368 53.4101C56.8862 56.0126 47.8443 55.6138 44.6325 53.5656C43.3341 52.693 42.7746 51.1482 42.5471 49.6764C42.5218 49.2176 42.1567 48.7969 41.6643 48.8317C40.4314 48.8169 39.1985 48.8202 37.9656 48.8301C37.5353 48.7936 37.088 49.1032 37.0645 49.5472C36.8112 56.2893 42.9328 59.2285 48.6761 59.8758C51.9576 60.192 55.3109 60.1739 58.5421 59.4617C60.9711 58.9022 63.4064 57.8722 65.0784 55.9797C67.1403 53.68 67.5456 50.2559 66.621 47.3912C65.9141 45.2538 63.8938 43.8826 61.8286 43.1773C59.0203 42.2032 55.6919 41.6797 53.1483 41.4346C49.451 41.0784 45.0575 41.2239 44.0111 38.7665C43.5938 37.4797 43.9489 35.882 45.118 35.0906C48.2112 32.9683 54.5062 33.2502 57.7096 34.8356C59.1805 35.5807 60.0328 37.1106 60.3846 38.6554C60.4498 39.1093 60.7516 39.5826 61.271 39.5628C62.4953 39.5875 63.7198 39.5694 64.9442 39.5711C65.3647 39.601 65.8253 39.3607 65.9074 38.9252C65.8555 35.6967 64.2256 32.3918 61.2857 30.8172Z" fill="#8CC84B"/>
</svg>
