<svg width="97" height="98" viewBox="0 0 97 98" fill="none" xmlns="http://www.w3.org/2000/svg">
<ellipse cx="49.5" cy="49.5" rx="47.5" ry="38.5" fill="#8892BF"/>
<path d="M43.7688 30.625H48.8614L47.4222 38.3554H51.9982C54.5076 38.4096 56.3771 38.9763 57.6075 40.0553C58.8622 41.1343 59.2312 43.1855 58.7146 46.2073L56.242 59.6849H51.0756L53.4374 46.8144C53.6832 45.465 53.6094 44.5074 53.216 43.9408C52.8226 43.3741 51.9738 43.0908 50.6697 43.0908L46.5734 43.0503L43.5473 59.6849H38.4547L43.7688 30.625Z" fill="white"/>
<path fill-rule="evenodd" clip-rule="evenodd" d="M20.4334 38.3556H30.3235C33.2263 38.3823 35.3298 39.3002 36.6339 41.1078C37.9381 42.9153 38.3684 45.3842 37.9255 48.5144C37.7535 49.9447 37.372 51.3475 36.7815 52.7236C36.2154 54.0997 35.4286 55.3406 34.4197 56.4472C33.1894 57.85 31.8734 58.7404 30.4711 59.1184C29.0688 59.4964 27.617 59.685 26.1165 59.685H21.6881L20.2858 67.375H15.1562L20.4334 38.3556ZM22.5369 55.1116L24.7437 43.01H25.4891C25.76 43.01 26.0427 42.9963 26.3379 42.9695C28.3063 42.9428 29.9419 43.1452 31.246 43.5766C32.5746 44.0081 33.0174 45.6408 32.5746 48.4739C32.0335 51.847 30.9752 53.8164 29.4009 54.383C27.8266 54.9229 25.8582 55.1788 23.4964 55.152H22.9797C22.8321 55.152 22.6845 55.1383 22.5369 55.1116Z" fill="white"/>
<path fill-rule="evenodd" clip-rule="evenodd" d="M74.0733 38.3556H64.1832L58.9061 67.375H64.0356L65.4379 59.685H69.8663C71.3668 59.685 72.8186 59.4964 74.2209 59.1184C75.6232 58.7404 76.9392 57.85 78.1695 56.4472C79.1784 55.3406 79.9652 54.0997 80.5313 52.7236C81.1218 51.3475 81.5033 49.9447 81.6753 48.5144C82.1181 45.3842 81.6878 42.9153 80.3837 41.1078C79.0796 39.3002 76.9761 38.3823 74.0733 38.3556ZM68.4935 43.01L66.2867 55.1116C66.4343 55.1383 66.5819 55.152 66.7295 55.152H67.2462C69.608 55.1788 71.5764 54.9229 73.1507 54.383C74.725 53.8164 75.7833 51.847 76.3244 48.4739C76.7672 45.6408 76.3244 44.0081 74.9958 43.5766C73.6917 43.1452 72.0561 42.9428 70.0877 42.9695C69.7925 42.9963 69.5098 43.01 69.2389 43.01H68.4935Z" fill="white"/>
</svg>
