<svg width="72" height="80" viewBox="0 0 72 80" fill="none" xmlns="http://www.w3.org/2000/svg">
<path fill-rule="evenodd" clip-rule="evenodd" d="M28.3279 0C22.6783 0 18.0984 4.92723 18.0984 11.0053V18.6243H35.8033V20.7407H10.2295C4.5799 20.7407 0 25.668 0 31.746L1.11786e-06 48.2539C1.11786e-06 54.332 4.57991 59.2592 10.2295 59.2592H16.1311V49.9471C16.1311 43.869 20.711 38.9418 26.3606 38.9418H45.2459C50.0263 38.9418 53.9016 34.7726 53.9016 29.6296V11.0053C53.9016 4.92723 49.3217 0 43.6721 0H28.3279ZM25.9672 13.545C27.9228 13.545 29.5082 11.8394 29.5082 9.73545C29.5082 7.6315 27.9228 5.92592 25.9672 5.92592C24.0116 5.92592 22.4262 7.6315 22.4262 9.73545C22.4262 11.8394 24.0116 13.545 25.9672 13.545Z" fill="url(#paint0_linear_9_103)"/>
<path fill-rule="evenodd" clip-rule="evenodd" d="M43.6721 80.0001C49.3217 80.0001 53.9016 75.0728 53.9016 68.9948V61.3757L36.1967 61.3757L36.1967 59.2593H61.7705C67.4201 59.2593 72 54.3321 72 48.2541V31.7461C72 25.6681 67.4201 20.7408 61.7705 20.7408L55.8689 20.7408V30.053C55.8689 36.1311 51.289 41.0583 45.6394 41.0583H26.7541C21.9737 41.0583 18.0984 45.2275 18.0984 50.3705L18.0984 68.9948C18.0984 75.0728 22.6783 80.0001 28.3279 80.0001H43.6721ZM46.0328 66.4551C44.0772 66.4551 42.4918 68.1607 42.4918 70.2646C42.4918 72.3686 44.0772 74.0742 46.0328 74.0742C47.9884 74.0742 49.5738 72.3686 49.5738 70.2646C49.5738 68.1607 47.9884 66.4551 46.0328 66.4551Z" fill="url(#paint1_linear_9_103)"/>
<defs>
<linearGradient id="paint0_linear_9_103" x1="26.9508" y1="0" x2="26.9508" y2="59.2592" gradientUnits="userSpaceOnUse">
<stop stop-color="#327EBD"/>
<stop offset="1" stop-color="#1565A7"/>
</linearGradient>
<linearGradient id="paint1_linear_9_103" x1="45.0492" y1="20.7408" x2="45.0492" y2="80.0001" gradientUnits="userSpaceOnUse">
<stop stop-color="#FFDA4B"/>
<stop offset="1" stop-color="#F9C600"/>
</linearGradient>
</defs>
</svg>
