<svg width="87" height="88" viewBox="0 0 87 88" fill="none" xmlns="http://www.w3.org/2000/svg">
<path d="M50.7832 43.9337C50.7832 39.989 47.5226 36.791 43.5 36.791C39.4778 36.791 36.2168 39.989 36.2168 43.9337C36.2168 47.8788 39.4778 51.0769 43.5 51.0769C47.5226 51.0769 50.7832 47.8788 50.7832 43.9337Z" fill="#53C1DE"/>
<path fill-rule="evenodd" clip-rule="evenodd" d="M67.1541 30.6727C68.6923 24.5432 70.6256 13.1766 63.8101 9.32294C57.0267 5.4861 48.1992 12.8382 43.5379 17.2513C38.8902 12.8822 29.8148 5.56151 23.0051 9.42737C16.2242 13.2771 18.3152 24.4552 19.8874 30.6231C13.562 32.3851 2.71875 36.1801 2.71875 43.9337C2.71875 51.6654 13.5507 55.7942 19.8387 57.5545C18.2607 63.7566 16.2743 74.7751 23.0639 78.616C29.8988 82.4812 38.9462 75.3349 43.6505 70.8736C48.3417 75.3126 57.0845 82.5057 63.8693 78.6539C70.6757 74.7898 68.9028 63.5756 67.3306 57.3718C73.426 55.6077 84.2812 51.5689 84.2812 43.9337C84.2812 36.2546 73.38 32.4288 67.1541 30.6727ZM66.3817 54.0841C65.3493 50.8793 63.956 47.4713 62.2515 43.9507C63.8784 40.5133 65.2175 37.1492 66.221 33.9649C70.785 35.2626 80.7972 38.2286 80.7972 43.9337C80.7972 49.6924 71.1895 52.6864 66.3817 54.0841ZM62.1233 75.6965C57.0613 78.5702 49.5415 71.6915 46.0769 68.4224C48.3752 65.9571 50.672 63.0911 52.9136 59.9086C56.8568 59.5656 60.582 59.0045 63.9603 58.2388C65.0668 62.6268 67.2081 72.8097 62.1233 75.6965ZM24.8048 75.6555C19.742 72.7926 22.0561 62.9602 23.2169 58.3917C26.5577 59.1163 30.2558 59.6378 34.2084 59.9521C36.4648 63.0663 38.828 65.9288 41.2097 68.4355C38.2671 71.2271 29.8913 78.5318 24.8048 75.6555ZM6.2028 43.9337C6.2028 38.1534 16.155 35.2091 20.823 33.9147C21.8438 37.1705 23.1827 40.5746 24.7983 44.0169C23.1617 47.5106 21.8038 50.9689 20.7736 54.2629C16.3225 53.0135 6.2028 49.7176 6.2028 43.9337ZM24.7507 12.3847C29.8342 9.49895 37.7219 16.527 41.0963 19.6904C38.7269 22.1857 36.3854 25.0266 34.1484 28.1228C30.3125 28.4715 26.6404 29.0315 23.2646 29.7816C21.9981 24.807 19.6726 15.2674 24.7507 12.3847ZM55.4061 31.837C58.0087 32.1591 60.5019 32.5875 62.8431 33.1118C62.1403 35.3211 61.2642 37.6314 60.2326 39.9997C58.7369 37.2165 57.1315 34.4894 55.4061 31.837ZM43.539 22.1323C45.146 23.8397 46.7556 25.7463 48.3388 27.8148C45.1272 27.666 41.9104 27.6653 38.6988 27.8127C40.2834 25.7633 41.9067 23.8595 43.539 22.1323ZM26.7974 39.9972C25.7827 37.637 24.9146 35.3165 24.2056 33.0757C26.5328 32.5648 29.0144 32.1475 31.6 31.8306C29.8699 34.4772 28.2671 37.2033 26.7974 39.9972ZM31.6744 56.2808C29.0032 55.9883 26.4841 55.5922 24.1576 55.0955C24.8778 52.815 25.765 50.4446 26.8013 48.0338C28.2914 50.8565 29.9184 53.6091 31.6744 56.2808ZM43.6354 65.9766C41.9839 64.2289 40.3369 62.296 38.728 60.2169C41.958 60.3414 45.1942 60.3417 48.4236 60.2003C46.8353 62.3173 45.2316 64.253 43.6354 65.9766ZM60.2658 47.911C61.3559 50.348 62.2749 52.7056 63.0048 54.9476C60.6398 55.4768 58.0866 55.903 55.3964 56.2195C57.1346 53.517 58.7654 50.7474 60.2658 47.911ZM50.9691 56.6337C46.0288 56.9799 41.0574 56.9762 36.1154 56.662C33.3071 52.639 30.8074 48.4081 28.6495 44.0159C30.7968 39.6327 33.2785 35.4102 36.0735 31.3934C41.0193 31.0268 45.9953 31.0259 50.941 31.3956C53.7118 35.4121 56.1898 39.6236 58.387 43.9674C56.2158 48.3484 53.7212 52.5794 50.9691 56.6337ZM62.0699 12.2831C67.1548 15.1595 64.8914 25.375 63.7805 29.817C60.3968 29.0513 56.7222 28.4814 52.875 28.1274C50.6338 24.9976 48.3117 22.1518 45.9806 19.6886C49.3984 16.4571 57.0342 9.43494 62.0699 12.2831Z" fill="#53C1DE"/>
</svg>
